<svg id="ba39a8f1-fd08-45a2-af05-68eb4560aba8" data-name="Layer 1" xmlns="http://www.w3.org/2000/svg" viewBox="0 0 50 48.84"><title>len-damico</title><path d="M5.73,39.76a2.49,2.49,0,0,0-.52.43L6,39.93l-.18-.22Z" style="fill:none"/><path d="M3.51,35.52A10.47,10.47,0,0,1,7,35a6.89,6.89,0,0,1,1.52.16,14.59,14.59,0,0,1,1.42.4,23.53,23.53,0,0,0,1-2.15q.51-1.21,1.12-2.76,1.07-2.94,1.87-5.91T15.33,19A9.44,9.44,0,0,1,14,19.2q-.72,0-1.47,0a11.93,11.93,0,0,1-3.85-.51,3.74,3.74,0,0,1-2-1.31,3.24,3.24,0,0,1-.42-1A2.18,2.18,0,0,1,6.36,15a4.67,4.67,0,0,0,1.42.77,8.16,8.16,0,0,0,1.42.35,8.86,8.86,0,0,0,1.54.14A15.73,15.73,0,0,0,13.48,16a19.76,19.76,0,0,0,2.64-.65q.56-2.8,1.1-5a17.26,17.26,0,0,1,1.24-3.64A24.1,24.1,0,0,1,20,3.9a10.66,10.66,0,0,1,1.1-1.4A23.29,23.29,0,0,0,3.29,35.61Z"/><path d="M25,9.3a7.16,7.16,0,0,0,1.52-4.2q0-1.26-.75-1.26a2.82,2.82,0,0,0-1.68,1,7.73,7.73,0,0,0-1.73,3q-.23.7-.61,2.06T21,13A14.88,14.88,0,0,0,25,9.3Z"/><path d="M33.91,23.38a1.41,1.41,0,0,1-.19-.82q0-.28,0-1a7.54,7.54,0,0,0-.26-1.49,4.18,4.18,0,0,0-.63-1.35,1.36,1.36,0,0,0-1.17-.58,3.22,3.22,0,0,0-2.2,1.1,14.44,14.44,0,0,0-2.1,2.66,18,18,0,0,0-1.63,3.34,11.54,11.54,0,0,0-.75,3.18,5.57,5.57,0,0,0,.56,3.22,2,2,0,0,0,1.78,1A3.45,3.45,0,0,0,29.13,32a12.88,12.88,0,0,0,2-1.59,25.42,25.42,0,0,0,1.78-1.92q.82-1,1.33-1.63.19-.89.35-1.78t.4-1.82l-.16.09-.16.09Q34.1,23.64,33.91,23.38Z"/><path d="M36.51,29q-.21,1.31-.26,2.1a2.32,2.32,0,0,0,.42,1.68,1.37,1.37,0,0,0,1,.51,3.07,3.07,0,0,0,1.61-.65,18.74,18.74,0,0,0,2-1.63q1.07-1,2.15-2.15t2-2.22q.91-1.05,1.54-1.85l.51-.62a23.14,23.14,0,0,0-3.19-10.41c.15-.49.29-1,.41-1.46a21.72,21.72,0,0,0,.72-4.44,18.48,18.48,0,0,0,0-2.64,4.12,4.12,0,0,0-.35-1.46,1.12,1.12,0,0,0-.62-.6h-.05a6.51,6.51,0,0,1,.12.8,18.71,18.71,0,0,1,0,2.66,21.93,21.93,0,0,1-.72,4.48,43,43,0,0,1-1.66,5q-1,2.59-2.36,5.18A52.33,52.33,0,0,1,37,26.21Z"/><path d="M4.42,38.84q-.77.49-.77,1a.53.53,0,0,0,.28.49,1.17,1.17,0,0,0,.79.07l.48-.17a2.49,2.49,0,0,1,.52-.43l.08,0,.18.22.14,0a4.58,4.58,0,0,0,1.82-1.31,3.7,3.7,0,0,0-1.07-.23A4.71,4.71,0,0,0,4.42,38.84Z"/><path d="M49.82,24.57a.62.62,0,0,0-.49-.09.92.92,0,0,0-.38.16,3.37,3.37,0,0,1-.18.31q-.56.89-1.45,2.08t-2,2.45Q44.28,30.74,43.09,32a24.64,24.64,0,0,1-2.38,2.15,15.7,15.7,0,0,1-2.29,1.52,4.31,4.31,0,0,1-2,.58,2.26,2.26,0,0,1-1.24-.37,4.16,4.16,0,0,1-1.05-1,4.7,4.7,0,0,1-.72-1.35A3.82,3.82,0,0,1,33.21,32q0-.33.14-1.12a19.82,19.82,0,0,1-3.95,3.48,7,7,0,0,1-3.81,1.28,3.51,3.51,0,0,1-1.4-.33,3.44,3.44,0,0,1-1.33-1.07,6,6,0,0,1-1-2,8.52,8.52,0,0,1-.28-2.94A16.62,16.62,0,0,1,22.7,24.2,16,16,0,0,1,25.06,20a11.56,11.56,0,0,1,3.22-2.85,7.11,7.11,0,0,1,3.62-1.05,2.74,2.74,0,0,1,1.45.4,3.92,3.92,0,0,1,1.12,1,6.3,6.3,0,0,1,.77,1.38,8.49,8.49,0,0,1,.44,1.4q.33-1.35.61-2.66t.56-2.48q.47-1.73,1-3.74l1.07-4a23.22,23.22,0,0,0-8-4.2c0-.11-.09-.21-.14-.32a3,3,0,0,0-1-1.13,4.18,4.18,0,0,1,.35,1.35q.07.82.07,1.52A8.94,8.94,0,0,1,29.48,8a15.9,15.9,0,0,1-2.1,3.6A21.2,21.2,0,0,1,24.13,15a17.46,17.46,0,0,1-4.23,2.62q-.8,3.08-1.56,6.1a47.32,47.32,0,0,1-1.52,5q-.66,1.82-1.66,4.06A25.78,25.78,0,0,1,12.71,37q.89.56,1.8,1.17a20.61,20.61,0,0,0,1.85,1.1,13.35,13.35,0,0,0,1.89.82,6.26,6.26,0,0,0,2,.33,10.4,10.4,0,0,0,2.2-.33,9,9,0,0,0,2-.77,6.93,6.93,0,0,0,1.92-1.52,2.83,2.83,0,0,1,.21,1.68,6.11,6.11,0,0,1-2.45,4.2,4.54,4.54,0,0,1-2.8.84A10.88,10.88,0,0,1,18,44.07a18.49,18.49,0,0,1-2.9-1.19,24,24,0,0,1-2.55-1.52l-2.22-1.52A12.4,12.4,0,0,1,7.25,42a8.24,8.24,0,0,1-3.74.84A4.45,4.45,0,0,1,2,42.65l.2.21a3.65,3.65,0,0,0,2.59.9,8.16,8.16,0,0,0,3.7-.83l.17-.09A23.28,23.28,0,0,0,47.28,29.25q.48-.6.92-1.19.88-1.18,1.43-2.06a1.8,1.8,0,0,0,.37-.92A.6.6,0,0,0,49.82,24.57Z"/><path d="M24.44,39.35a9,9,0,0,1-2,.77,10.4,10.4,0,0,1-2.2.33,6.26,6.26,0,0,1-2-.33,13.35,13.35,0,0,1-1.89-.82,20.61,20.61,0,0,1-1.85-1.1q-.91-.61-1.8-1.17a25.78,25.78,0,0,0,2.45-4.3q1-2.24,1.66-4.06a47.32,47.32,0,0,0,1.52-5q.77-3,1.56-6.1A17.46,17.46,0,0,0,24.13,15a21.2,21.2,0,0,0,3.25-3.36A15.9,15.9,0,0,0,29.48,8a8.94,8.94,0,0,0,.75-3.36q0-.7-.07-1.52a4.18,4.18,0,0,0-.35-1.35l-.07-.17a3.08,3.08,0,0,0-1-1.17A3.21,3.21,0,0,0,26.87,0a7.79,7.79,0,0,0-2.8.47A7.52,7.52,0,0,0,21.85,1.8a9.15,9.15,0,0,0-.72.7A10.66,10.66,0,0,0,20,3.9a24.1,24.1,0,0,0-1.56,2.78,17.26,17.26,0,0,0-1.24,3.64q-.54,2.24-1.1,5a19.76,19.76,0,0,1-2.64.65,15.73,15.73,0,0,1-2.73.23,8.86,8.86,0,0,1-1.54-.14,8.16,8.16,0,0,1-1.42-.35A4.67,4.67,0,0,1,6.36,15a2.18,2.18,0,0,0-.14,1.45,3.24,3.24,0,0,0,.42,1,3.74,3.74,0,0,0,2,1.31,11.93,11.93,0,0,0,3.85.51q.75,0,1.47,0A9.44,9.44,0,0,0,15.33,19q-.56,2.8-1.35,5.77t-1.87,5.91Q11.5,32.23,11,33.45a23.53,23.53,0,0,1-1,2.15,14.59,14.59,0,0,0-1.42-.4A6.89,6.89,0,0,0,7,35a10.47,10.47,0,0,0-3.5.49l-.22.08a6.1,6.1,0,0,0-1.9,1.11A3.76,3.76,0,0,0,.34,38.19,5.3,5.3,0,0,0,0,39.52,2.93,2.93,0,0,0,.9,42,3.21,3.21,0,0,0,2,42.65a4.45,4.45,0,0,0,1.47.23A8.24,8.24,0,0,0,7.25,42a12.4,12.4,0,0,0,3.08-2.2l2.22,1.52a24,24,0,0,0,2.55,1.52A18.49,18.49,0,0,0,18,44.07a10.88,10.88,0,0,0,3.32.49,4.54,4.54,0,0,0,2.8-.84,6.11,6.11,0,0,0,2.45-4.2,2.83,2.83,0,0,0-.21-1.68A6.93,6.93,0,0,1,24.44,39.35ZM21.78,9.9q.37-1.35.61-2.06a7.73,7.73,0,0,1,1.73-3,2.82,2.82,0,0,1,1.68-1q.75,0,.75,1.26A7.16,7.16,0,0,1,25,9.3,14.88,14.88,0,0,1,21,13Q21.4,11.26,21.78,9.9Zm-15.65,30-.14,0-.78.25-.48.17a1.17,1.17,0,0,1-.79-.07.53.53,0,0,1-.28-.49q0-.47.77-1a4.71,4.71,0,0,1,2.45-.49,3.7,3.7,0,0,1,1.07.23A4.58,4.58,0,0,1,6.13,39.89Z" style="fill:#fff"/><path d="M49,23.5a.63.63,0,0,0-.49-.09,1.06,1.06,0,0,0-.58.33c-.08.08-.2.22-.36.4l-.51.62q-.63.8-1.54,1.85t-2,2.22Q42.42,30,41.34,31a18.74,18.74,0,0,1-2,1.63,3.07,3.07,0,0,1-1.61.65,1.37,1.37,0,0,1-1-.51,2.32,2.32,0,0,1-.42-1.68q0-.79.26-2.1L37,26.21a52.33,52.33,0,0,0,2.87-4.93q1.33-2.59,2.36-5.18a43,43,0,0,0,1.66-5,21.93,21.93,0,0,0,.72-4.48,18.71,18.71,0,0,0,0-2.66,6.51,6.51,0,0,0-.12-.8,2.77,2.77,0,0,0-.23-.67,1.13,1.13,0,0,0-.63-.61,2.83,2.83,0,0,0-.84-.12,2.51,2.51,0,0,0-.79.14,5,5,0,0,0-.79.28,4.15,4.15,0,0,0-.89.56q-.75,2.48-1.35,4.72v0l-1.07,4q-.51,2-1,3.74-.28,1.17-.56,2.48t-.61,2.66a8.49,8.49,0,0,0-.44-1.4,6.3,6.3,0,0,0-.77-1.38,3.92,3.92,0,0,0-1.12-1,2.74,2.74,0,0,0-1.45-.4,7.11,7.11,0,0,0-3.62,1.05A11.56,11.56,0,0,0,25.06,20,16,16,0,0,0,22.7,24.2a16.62,16.62,0,0,0-1.07,5.14,8.52,8.52,0,0,0,.28,2.94,6,6,0,0,0,1,2,3.44,3.44,0,0,0,1.33,1.07,3.51,3.51,0,0,0,1.4.33,7,7,0,0,0,3.81-1.28,19.82,19.82,0,0,0,3.95-3.48q-.09.79-.14,1.12a3.82,3.82,0,0,0,.21,1.49,4.7,4.7,0,0,0,.72,1.35,4.16,4.16,0,0,0,1.05,1,2.26,2.26,0,0,0,1.24.37,4.31,4.31,0,0,0,2-.58,15.7,15.7,0,0,0,2.29-1.52A24.64,24.64,0,0,0,43.09,32q1.19-1.21,2.27-2.48t2-2.45q.89-1.19,1.45-2.08a3.37,3.37,0,0,0,.18-.31,1.41,1.41,0,0,0,.19-.63A.61.61,0,0,0,49,23.5ZM34.55,25q-.16.89-.35,1.78-.51.65-1.33,1.63a25.42,25.42,0,0,1-1.78,1.92,12.88,12.88,0,0,1-2,1.59,3.45,3.45,0,0,1-1.84.65,2,2,0,0,1-1.78-1,5.57,5.57,0,0,1-.56-3.22,11.54,11.54,0,0,1,.75-3.18,18,18,0,0,1,1.63-3.34,14.44,14.44,0,0,1,2.1-2.66,3.22,3.22,0,0,1,2.2-1.1,1.36,1.36,0,0,1,1.17.58,4.18,4.18,0,0,1,.63,1.35,7.54,7.54,0,0,1,.26,1.49q0,.72,0,1a1.41,1.41,0,0,0,.19.82q.19.26.7,0l.16-.09.16-.09Q34.71,24.15,34.55,25Z" style="fill:#fff"/></svg>